<svg width="44" height="44" viewBox="0 0 44 44" fill="none" xmlns="http://www.w3.org/2000/svg">
<path d="M4.88945 38.9723C1.09221 35.2276 -0.689229 29.5324 0.381427 24.2982C1.44056 18.4198 6.00621 13.2958 11.7719 11.6808C14.5945 14.5445 17.453 17.3696 20.2885 20.2179C20.8725 20.7814 21.4078 21.3949 22.0379 21.9084C20.0285 21.9289 18.0152 21.8546 16.0084 21.9327C13.2357 22.1082 10.8869 24.7234 11.0419 27.5037C11.0163 30.3097 13.5328 32.8455 16.3401 32.8288C21.8624 32.8417 27.3835 32.8276 32.9033 32.8378C36.5314 36.4698 40.1532 40.1096 43.8006 43.7237C43.2371 43.8312 42.6647 43.8018 42.096 43.7967C33.5807 43.798 25.068 43.7967 16.5553 43.798C12.238 43.8095 7.92469 42.0575 4.88945 38.9723Z" fill="#7C4EE4"/>
<path d="M10.7578 10.713C7.16802 7.14752 3.63331 3.52317 -1.40422e-06 0C8.49865 0.0332981 16.996 0.00511858 25.4947 0.0153645C26.9214 0.0345752 28.3621 -0.0653165 29.7722 0.202349C33.3863 0.700537 36.8096 2.46917 39.3108 5.12275C42.0911 8.00558 43.7176 11.9475 43.8444 15.9459C43.9392 19.2411 43.0068 22.5619 41.2228 25.3333C39.1238 28.5568 35.8798 31.1054 32.1479 32.1248C29.3611 29.2932 26.5308 26.5013 23.726 23.6851C23.1613 23.1613 22.6874 22.5337 22.0394 22.1009C22.1495 22.0099 22.2686 21.9331 22.3993 21.8716C24.1807 21.9087 25.966 21.9036 27.7487 21.8806C30.515 21.8037 32.9432 19.2756 32.8881 16.5055C32.9688 14.2553 31.446 12.0935 29.347 11.3213C28.5466 10.9755 27.6629 10.9704 26.8061 10.9781C21.6347 10.9832 16.4645 10.9768 11.2944 10.9819C11.078 10.9832 10.8987 10.8935 10.7578 10.713Z" fill="#7C4EE4"/>
</svg>
